<svg xmlns="http://www.w3.org/2000/svg" viewBox="0 0 326 292.08"><g id="Layer_2" data-name="Layer 2"><g id="Layer_1-2" data-name="Layer 1"><circle cx="162.5" cy="146.54" r="26.5"/><path d="M162.5,124a22.5,22.5,0,1,1-22.5,22.5A22.52,22.52,0,0,1,162.5,124m0-8a30.5,30.5,0,1,0,30.5,30.5A30.5,30.5,0,0,0,162.5,116Z"/><path d="M95.76,8C107.94,8,126,19.27,145.3,38.91c20.85,21.21,42.12,51.09,59.91,84.15,20.22,37.57,34.14,75.51,39.19,106.82,4.47,27.71,1.31,47.4-8.45,52.65a13.84,13.84,0,0,1-6.7,1.55c-12.18,0-30.24-11.27-49.54-30.91C158.86,232,137.58,202.08,119.79,169,99.57,131.45,85.65,93.51,80.6,62.2c-4.47-27.72-1.31-47.4,8.45-52.65A13.83,13.83,0,0,1,95.76,8h0m0-8A21.82,21.82,0,0,0,85.26,2.5c-27.48,14.79-15.17,91,27.49,170.31,37.79,70.23,86.72,119.27,116.5,119.27a21.93,21.93,0,0,0,10.49-2.5c27.48-14.79,15.17-91-27.49-170.31C174.46,49,125.53,0,95.75,0Z"/><path d="M229.25,8A13.84,13.84,0,0,1,236,9.55c9.76,5.25,12.92,24.93,8.45,52.65-5.05,31.31-19,69.25-39.19,106.82-17.79,33.06-39.07,62.94-59.92,84.15-19.3,19.64-37.36,30.91-49.54,30.91a13.84,13.84,0,0,1-6.7-1.55c-9.76-5.25-12.92-24.94-8.45-52.65,5.05-31.31,19-69.25,39.19-106.82C137.58,90,158.86,60.12,179.71,38.9,199,19.26,217.07,8,229.25,8m0-8c-29.78,0-78.71,49-116.5,119.27-42.66,79.27-55,155.52-27.49,170.31a21.93,21.93,0,0,0,10.49,2.5c29.78,0,78.71-49,116.5-119.27,42.66-79.27,55-155.52,27.49-170.31A21.82,21.82,0,0,0,229.25,0Z"/><path d="M163,99c42.67,0,82.67,5.72,112.64,16.11,26.52,9.19,42.36,21.3,42.36,32.39s-15.84,23.2-42.36,32.39c-30,10.39-70,16.11-112.64,16.11s-82.67-5.72-112.64-16.11C23.84,170.74,8,158.63,8,147.54s15.84-23.2,42.36-32.39C80.33,104.76,120.33,99,163,99m0-8C73,91,0,116.34,0,147.54S73,204,163,204s163-25.3,163-56.5S253,91,163,91Z"/></g></g></svg>